<svg width="151" height="154" viewBox="0 0 151 154" fill="none" xmlns="http://www.w3.org/2000/svg">
<g filter="url(#filter0_d_0_1134)">
<ellipse cx="75.5" cy="74" rx="72.5" ry="74" fill="#5F37A8"/>
</g>
<ellipse cx="75.5" cy="70.7192" rx="72.5" ry="70.7192" fill="#834EE3"/>
<ellipse cx="75.5" cy="70.7192" rx="72.5" ry="70.7192" fill="url(#paint0_linear_0_1134)"/>
<ellipse cx="75.5" cy="72.1774" rx="55.6566" ry="55.4089" fill="#BABFD4"/>
<ellipse cx="75.5" cy="75.0937" rx="55.6566" ry="52.4926" fill="url(#paint1_linear_0_1134)"/>
<path d="M93.4836 47.0967C96.7122 45.097 99.8069 44.6634 102.198 45.877C107.556 48.5972 106.781 58.7219 104.588 63.1094C103.35 65.5858 101.156 67.3956 98.0598 68.4961C96.8608 72.2952 95.1751 75.5596 93.0247 78.2598C94.4337 79.4391 96.2276 80.0976 98.1047 80.0977H98.1946L101.216 77.1152C101.977 76.3646 103.21 76.3644 103.97 77.1152C104.73 77.866 104.73 79.0835 103.97 79.834L103.702 80.0977H104.31C105.385 80.0977 106.258 80.9581 106.258 82.0195C106.258 83.081 105.386 83.9424 104.311 83.9424H103.702L103.97 84.2061C104.73 84.9568 104.73 86.1742 103.97 86.9248C103.59 87.3002 103.091 87.4883 102.593 87.4883C102.095 87.4883 101.596 87.3003 101.216 86.9248L98.1946 83.9424H98.1047C95.2401 83.9423 92.5062 82.9161 90.3801 81.084C89.9643 81.461 89.537 81.824 89.0959 82.1689C85.3639 85.0877 80.8012 86.7845 75.468 87.249C76.1397 89.2734 76.2726 91.4646 75.8127 93.6025L75.7932 93.6914L78.1184 97.3525C78.7037 98.274 78.439 99.5015 77.5286 100.094C77.2006 100.307 76.8335 100.408 76.4709 100.408C75.8262 100.408 75.195 100.087 74.8206 99.4971L74.6145 99.1729L74.4846 99.7783C74.2849 100.706 73.4732 101.34 72.5715 101.34C72.4334 101.34 72.293 101.325 72.1526 101.294C71.0949 101.061 70.4245 100.005 70.6545 98.9346L70.7844 98.3291L70.4641 98.5381C69.5535 99.1298 68.3413 98.8628 67.7561 97.9414C67.1708 97.02 67.4344 95.7925 68.345 95.2002L71.9631 92.8477L71.9817 92.7588C72.3784 90.9135 72.1144 89.0104 71.2659 87.3633C69.7228 87.3197 68.1247 87.1886 66.4729 86.9648C61.7891 86.3305 59.1324 88.3959 58.429 89.0449C52.9194 94.1296 51.8457 103.111 51.8323 103.228C51.7397 104.05 51.1466 104.729 50.3459 104.928C50.189 104.966 50.0303 104.985 49.8733 104.985C49.2306 104.985 48.6158 104.669 48.2434 104.118C48.1552 103.988 46.0781 100.884 45.1672 96.5029C43.9304 90.5538 45.4055 85.0965 49.4329 80.7207C51.7686 78.1828 54.752 76.2534 58.0588 75.1426C58.102 75.1281 58.1455 75.1148 58.1887 75.1006C58.0472 75.1365 57.9057 75.1727 57.7649 75.2109C56.7227 74.7256 55.5731 74.4639 54.3899 74.4639H54.2991L51.2668 77.4473C50.8852 77.8224 50.385 78.0098 49.885 78.0098C49.385 78.0097 48.8848 77.8226 48.5032 77.4473C47.7402 76.6966 47.7403 75.4792 48.5032 74.7285L48.7717 74.4639H48.1614C47.0821 74.4638 46.2073 73.6036 46.2073 72.542C46.2073 71.4804 47.0821 70.6201 48.1614 70.6201H48.7717L48.5032 70.3555C47.7403 69.6047 47.7401 68.3873 48.5032 67.6367C49.2663 66.8863 50.5038 66.8864 51.2668 67.6367L54.2991 70.6191H54.3889C57.586 70.6191 60.6218 71.8878 62.8362 74.123C64.6015 73.9465 66.4022 73.976 68.1858 74.2178C73.1318 74.8876 77.1766 74.197 80.2991 72.1631C78.561 70.0197 77.5891 67.3051 77.5891 64.4639V64.373L74.5999 61.2871C73.8475 60.5104 73.8474 59.2511 74.5999 58.4746C75.3523 57.6983 76.5722 57.6983 77.3245 58.4746L77.5891 58.748V58.127C77.5891 57.0287 78.4518 56.1377 79.5159 56.1377C80.5799 56.1377 81.4426 57.0287 81.4426 58.127V58.748L81.7073 58.4746C82.4597 57.6983 83.6796 57.6983 84.4319 58.4746C85.5782 59.6579 84.7514 60.9571 84.4319 61.2871C84.1124 61.6169 81.4426 64.373 81.4426 64.373V64.4648C81.4427 66.3424 82.0783 68.1365 83.2151 69.5615C84.6255 67.8744 85.7358 65.7543 86.5393 63.2021C85.9515 61.5776 85.0374 57.7291 87.3665 53.3652C88.5861 51.0799 90.9304 48.6783 93.4836 47.0967Z" fill="#3B4262"/>
<defs>
<filter id="filter0_d_0_1134" x="0" y="0" width="151" height="154" filterUnits="userSpaceOnUse" color-interpolation-filters="sRGB">
<feFlood flood-opacity="0" result="BackgroundImageFix"/>
<feColorMatrix in="SourceAlpha" type="matrix" values="0 0 0 0 0 0 0 0 0 0 0 0 0 0 0 0 0 0 127 0" result="hardAlpha"/>
<feOffset dy="3"/>
<feGaussianBlur stdDeviation="1.5"/>
<feColorMatrix type="matrix" values="0 0 0 0 0 0 0 0 0 0 0 0 0 0 0 0 0 0 0.196706 0"/>
<feBlend mode="normal" in2="BackgroundImageFix" result="effect1_dropShadow_0_1134"/>
<feBlend mode="normal" in="SourceGraphic" in2="effect1_dropShadow_0_1134" result="shape"/>
</filter>
<linearGradient id="paint0_linear_0_1134" x1="3" y1="0" x2="3" y2="141.438" gradientUnits="userSpaceOnUse">
<stop stop-color="white" stop-opacity="0.0966455"/>
<stop offset="1" stop-color="white" stop-opacity="0.01"/>
</linearGradient>
<linearGradient id="paint1_linear_0_1134" x1="130.234" y1="127.586" x2="130.234" y2="24.3412" gradientUnits="userSpaceOnUse">
<stop stop-color="#F3F3F3"/>
<stop offset="1" stop-color="#DADADA"/>
</linearGradient>
</defs>
</svg>
